<svg width="40" height="41" viewBox="0 0 40 41" fill="none" xmlns="http://www.w3.org/2000/svg">
<path d="M22 6.125C22 4.99742 21.1046 4.08333 20 4.08333C18.8954 4.08333 18 4.99742 18 6.125V8.16667C18 9.29425 18.8954 10.2083 20 10.2083C21.1046 10.2083 22 9.29425 22 8.16667V6.125Z" fill="#FFD466"/>
<path d="M31.3136 11.7545C32.0947 10.9572 32.0947 9.66447 31.3136 8.86715C30.5326 8.06983 29.2662 8.06983 28.4852 8.86715L27.071 10.3108C26.2899 11.1081 26.2899 12.4009 27.071 13.1982C27.852 13.9955 29.1184 13.9955 29.8994 13.1982L31.3136 11.7545Z" fill="#FFD466"/>
<path d="M36 20.4167C36 21.5442 35.1046 22.4583 34 22.4583H32C30.8954 22.4583 30 21.5442 30 20.4167C30 19.2891 30.8954 18.375 32 18.375H34C35.1046 18.375 36 19.2891 36 20.4167Z" fill="#FFD466"/>
<path d="M10.1004 13.1982C10.8814 13.9955 12.1478 13.9955 12.9288 13.1982C13.7099 12.4009 13.7099 11.1082 12.9288 10.3109L11.5146 8.86718C10.7335 8.06986 9.46721 8.06986 8.68616 8.86718C7.90511 9.66451 7.90511 10.9572 8.68616 11.7545L10.1004 13.1982Z" fill="#FFD466"/>
<path d="M10 20.4167C10 21.5442 9.10457 22.4583 8 22.4583H6C4.89543 22.4583 4 21.5442 4 20.4167C4 19.2891 4.89543 18.375 6 18.375H8C9.10457 18.375 10 19.2891 10 20.4167Z" fill="#FFD466"/>
<path d="M16 32.6667V30.625H24V32.6667C24 34.9218 22.2091 36.75 20 36.75C17.7909 36.75 16 34.9218 16 32.6667Z" fill="#FFD466"/>
<path d="M24.0018 28.5833C24.031 27.8885 24.4152 27.2638 24.9536 26.8298C26.8091 25.3342 28 23.0174 28 20.4167C28 15.9063 24.4183 12.25 20 12.25C15.5817 12.25 12 15.9063 12 20.4167C12 23.0174 13.1909 25.3342 15.0464 26.8298C15.5848 27.2638 15.969 27.8885 15.9982 28.5833H24.0018Z" fill="#FFD466"/>
</svg>
