<svg width="36" height="41" viewBox="0 0 36 41" fill="none" xmlns="http://www.w3.org/2000/svg">
<path fill-rule="evenodd" clip-rule="evenodd" d="M16.5 5.125C14.8431 5.125 13.5 6.46815 13.5 8.125V20.0388C13.5 20.3311 13.3696 20.6062 13.1591 20.8089C11.5327 22.3758 10.5 24.7172 10.5 27.3333C10.5 32.0508 13.8579 35.875 18 35.875C22.1421 35.875 25.5 32.0508 25.5 27.3333C25.5 24.7172 24.4673 22.3758 22.8409 20.8089C22.6304 20.6062 22.5 20.3311 22.5 20.0389V8.125C22.5 6.46815 21.1569 5.125 19.5 5.125H16.5ZM21 27.3333C21 29.2203 19.6569 30.75 18 30.75C16.3431 30.75 15 29.2203 15 27.3333C15 25.4464 16.3431 23.9167 18 23.9167C19.6569 23.9167 21 25.4464 21 27.3333Z" fill="#FF7676"/>
</svg>
